<svg width="33" height="35" viewBox="0 0 33 35" fill="none" xmlns="http://www.w3.org/2000/svg">
<path fill-rule="evenodd" clip-rule="evenodd" d="M9.6942 6.1941C11.4992 4.38906 13.9474 3.375 16.5001 3.375C19.0528 3.375 21.501 4.38906 23.306 6.1941C25.111 7.99914 26.1251 10.4473 26.1251 13C26.1251 17.6099 27.1111 20.4726 28.0197 22.1385C28.4759 22.9749 28.9202 23.5235 29.2288 23.8493C29.3834 24.0125 29.5049 24.1208 29.5781 24.1817C29.6147 24.2122 29.6393 24.231 29.6499 24.2388C29.6515 24.2401 29.6528 24.241 29.6538 24.2417C30.1467 24.5803 30.3648 25.1997 30.1911 25.7735C30.0155 26.3534 29.481 26.75 28.8751 26.75H4.12511C3.51919 26.75 2.98469 26.3534 2.80911 25.7735C2.63538 25.1997 2.85351 24.5803 3.34643 24.2417C3.3474 24.241 3.34871 24.2401 3.35036 24.2388C3.36095 24.231 3.3855 24.2122 3.4221 24.1817C3.49527 24.1208 3.6168 24.0125 3.77145 23.8493C4.08004 23.5235 4.52428 22.9749 4.9805 22.1385C5.88914 20.4726 6.87511 17.6099 6.87511 13C6.87511 10.4473 7.88917 7.99913 9.6942 6.1941ZM3.36033 24.2323C3.36044 24.2322 3.36055 24.2322 3.36065 24.2321C3.36065 24.2321 3.36064 24.2321 3.36064 24.2321L3.36033 24.2323ZM7.08043 24H25.9198C25.8152 23.8286 25.7101 23.6471 25.6055 23.4553C24.4516 21.3399 23.3751 18.0151 23.3751 13C23.3751 11.1766 22.6508 9.42795 21.3615 8.13864C20.0722 6.84933 18.3235 6.125 16.5001 6.125C14.6767 6.125 12.9281 6.84933 11.6387 8.13864C10.3494 9.42795 9.62511 11.1766 9.62511 13C9.62511 18.0151 8.54857 21.3399 7.39471 23.4553C7.29008 23.6471 7.18505 23.8286 7.08043 24Z" fill="#FFFFFF"/>
<path fill-rule="evenodd" clip-rule="evenodd" d="M13.4314 29.6856C14.0883 29.3046 14.9297 29.5282 15.3107 30.185C15.4316 30.3934 15.6051 30.5664 15.8138 30.6866C16.0225 30.8068 16.2592 30.8701 16.5001 30.8701C16.741 30.8701 16.9776 30.8068 17.1864 30.6866C17.3951 30.5664 17.5686 30.3934 17.6894 30.185C18.0705 29.5282 18.9119 29.3046 19.5688 29.6856C20.2256 30.0666 20.4492 30.908 20.0682 31.5649C19.7056 32.19 19.1851 32.7089 18.5589 33.0696C17.9327 33.4303 17.2227 33.6201 16.5001 33.6201C15.7774 33.6201 15.0674 33.4303 14.4412 33.0696C13.815 32.7089 13.2946 32.19 12.9319 31.5649C12.5509 30.908 12.7745 30.0666 13.4314 29.6856Z" fill="#FFFFFF"/>
<circle cx="21" cy="5" r="5" fill="#DA3928"/>
</svg>
