<svg width="33" height="33" viewBox="0 0 33 33" fill="#000000" xmlns="http://www.w3.org/2000/svg">
<path fill-rule="evenodd" clip-rule="evenodd" d="M9.6942 4.1941C11.4992 2.38906 13.9474 1.375 16.5001 1.375C19.0528 1.375 21.501 2.38906 23.306 4.1941C25.111 5.99914 26.1251 8.44729 26.1251 11C26.1251 15.6099 27.1111 18.4726 28.0197 20.1385C28.4759 20.9749 28.9202 21.5235 29.2288 21.8493C29.3834 22.0125 29.5049 22.1208 29.5781 22.1817C29.6147 22.2122 29.6393 22.231 29.6499 22.2388C29.6515 22.2401 29.6528 22.241 29.6538 22.2417C30.1467 22.5803 30.3648 23.1997 30.1911 23.7735C30.0155 24.3534 29.481 24.75 28.8751 24.75H4.12511C3.51919 24.75 2.98469 24.3534 2.80911 23.7735C2.63538 23.1997 2.85351 22.5803 3.34643 22.2417C3.3474 22.241 3.34871 22.2401 3.35036 22.2388C3.36095 22.231 3.3855 22.2122 3.4221 22.1817C3.49527 22.1208 3.6168 22.0125 3.77145 21.8493C4.08004 21.5235 4.52428 20.9749 4.9805 20.1385C5.88914 18.4726 6.87511 15.6099 6.87511 11C6.87511 8.44729 7.88917 5.99913 9.6942 4.1941ZM3.36033 22.2323C3.36044 22.2322 3.36055 22.2322 3.36065 22.2321C3.36065 22.2321 3.36064 22.2321 3.36064 22.2321L3.36033 22.2323ZM7.08043 22H25.9198C25.8152 21.8286 25.7101 21.6471 25.6055 21.4553C24.4516 19.3399 23.3751 16.0151 23.3751 11C23.3751 9.17664 22.6508 7.42795 21.3615 6.13864C20.0722 4.84933 18.3235 4.125 16.5001 4.125C14.6767 4.125 12.9281 4.84933 11.6387 6.13864C10.3494 7.42795 9.62511 9.17664 9.62511 11C9.62511 16.0151 8.54857 19.3399 7.39471 21.4553C7.29008 21.6471 7.18505 21.8286 7.08043 22Z" fill="#000000"/>
<path fill-rule="evenodd" clip-rule="evenodd" d="M13.4314 27.6856C14.0883 27.3046 14.9297 27.5282 15.3107 28.185C15.4316 28.3934 15.6051 28.5664 15.8138 28.6866C16.0225 28.8068 16.2592 28.8701 16.5001 28.8701C16.741 28.8701 16.9776 28.8068 17.1864 28.6866C17.3951 28.5664 17.5686 28.3934 17.6894 28.185C18.0705 27.5282 18.9119 27.3046 19.5688 27.6856C20.2256 28.0666 20.4492 28.908 20.0682 29.5649C19.7056 30.19 19.1851 30.7089 18.5589 31.0696C17.9327 31.4303 17.2227 31.6201 16.5001 31.6201C15.7774 31.6201 15.0674 31.4303 14.4412 31.0696C13.815 30.7089 13.2946 30.19 12.9319 29.5649C12.5509 28.908 12.7745 28.0666 13.4314 27.6856Z" fill="#000000"/>
</svg>
