<svg width="30" height="30" viewBox="0 0 30 30" fill="none" xmlns="http://www.w3.org/2000/svg">
<path fill-rule="evenodd" clip-rule="evenodd" d="M2.34835 4.84835C3.05161 4.14509 4.00544 3.75 5 3.75H13.75C14.4404 3.75 15 4.30964 15 5C15 5.69036 14.4404 6.25 13.75 6.25H5C4.66848 6.25 4.35054 6.3817 4.11612 6.61612C3.8817 6.85054 3.75 7.16848 3.75 7.5V25C3.75 25.3315 3.8817 25.6495 4.11612 25.8839C4.35054 26.1183 4.66848 26.25 5 26.25H22.5C22.8315 26.25 23.1495 26.1183 23.3839 25.8839C23.6183 25.6495 23.75 25.3315 23.75 25V16.25C23.75 15.5596 24.3096 15 25 15C25.6904 15 26.25 15.5596 26.25 16.25V25C26.25 25.9946 25.8549 26.9484 25.1517 27.6517C24.4484 28.3549 23.4946 28.75 22.5 28.75H5C4.00544 28.75 3.05161 28.3549 2.34835 27.6517C1.64509 26.9484 1.25 25.9946 1.25 25V7.5C1.25 6.50544 1.64509 5.55161 2.34835 4.84835Z" fill="#6A6A6A"/>
<path fill-rule="evenodd" clip-rule="evenodd" d="M25 3.59833C24.6283 3.59833 24.2718 3.746 24.0089 4.00886L12.3787 15.639L11.718 18.282L14.361 17.6213L25.9911 5.99109C26.254 5.72823 26.4017 5.37172 26.4017 4.99998C26.4017 4.62824 26.254 4.27172 25.9911 4.00886C25.7283 3.746 25.3718 3.59833 25 3.59833ZM22.2411 2.24109C22.9728 1.50939 23.9652 1.09833 25 1.09833C26.0348 1.09833 27.0272 1.50939 27.7589 2.24109C28.4906 2.9728 28.9017 3.9652 28.9017 4.99998C28.9017 6.03476 28.4906 7.02716 27.7589 7.75886L15.8839 19.6339C15.7237 19.7941 15.523 19.9077 15.3032 19.9627L10.3032 21.2127C9.87723 21.3191 9.42662 21.1943 9.11614 20.8839C8.80567 20.5734 8.68086 20.1228 8.78735 19.6968L10.0373 14.6968C10.0923 14.477 10.2059 14.2763 10.3661 14.1161L22.2411 2.24109Z" fill="#6A6A6A"/>
</svg>
