<svg width="30" height="30" viewBox="0 0 30 30" fill="none" xmlns="http://www.w3.org/2000/svg">
<path d="M20.3624 10.8875L23.2374 13.75L11.2499 13.75C10.9184 13.75 10.6004 13.8817 10.366 14.1161C10.1316 14.3505 9.99989 14.6685 9.99989 15C9.99989 15.3315 10.1316 15.6495 10.366 15.8839C10.6004 16.1183 10.9184 16.25 11.2499 16.25L23.2374 16.25L20.3624 19.1125C20.2452 19.2287 20.1522 19.367 20.0888 19.5193C20.0253 19.6716 19.9926 19.835 19.9926 20C19.9926 20.165 20.0253 20.3284 20.0888 20.4807C20.1522 20.633 20.2452 20.7713 20.3624 20.8875C20.4786 21.0047 20.6168 21.0977 20.7692 21.1611C20.9215 21.2246 21.0849 21.2572 21.2499 21.2572C21.4149 21.2572 21.5783 21.2246 21.7306 21.1611C21.8829 21.0977 22.0212 21.0047 22.1374 20.8875L27.1374 15.8875C27.2512 15.7686 27.3404 15.6284 27.3999 15.475C27.5249 15.1707 27.5249 14.8293 27.3999 14.525C27.3404 14.3716 27.2512 14.2314 27.1374 14.1125L22.1374 9.1125C22.0208 8.99595 21.8825 8.9035 21.7302 8.84043C21.5779 8.77735 21.4147 8.74489 21.2499 8.74489C21.0851 8.74489 20.9219 8.77735 20.7696 8.84043C20.6173 8.9035 20.4789 8.99595 20.3624 9.1125C20.2458 9.22905 20.1534 9.36741 20.0903 9.51969C20.0272 9.67197 19.9948 9.83518 19.9948 10C19.9948 10.1648 20.0272 10.328 20.0903 10.4803C20.1534 10.6326 20.2458 10.771 20.3624 10.8875ZM14.9999 26.25C14.9999 25.9185 14.8682 25.6005 14.6338 25.3661C14.3993 25.1317 14.0814 25 13.7499 25H6.24989C5.91836 25 5.60042 24.8683 5.366 24.6339C5.13158 24.3995 4.99989 24.0815 4.99989 23.75L4.99989 6.25C4.99989 5.91848 5.13158 5.60054 5.366 5.36612C5.60042 5.1317 5.91836 5 6.24989 5L13.7499 5C14.0814 5 14.3993 4.8683 14.6338 4.63388C14.8682 4.39946 14.9999 4.08152 14.9999 3.75C14.9999 3.41848 14.8682 3.10054 14.6338 2.86612C14.3993 2.6317 14.0814 2.5 13.7499 2.5L6.24989 2.5C5.25532 2.5 4.30149 2.89509 3.59823 3.59835C2.89497 4.30161 2.49989 5.25544 2.49989 6.25L2.49989 23.75C2.49989 24.7446 2.89497 25.6984 3.59823 26.4017C4.30149 27.1049 5.25532 27.5 6.24989 27.5H13.7499C14.0814 27.5 14.3993 27.3683 14.6338 27.1339C14.8682 26.8995 14.9999 26.5815 14.9999 26.25Z" fill="#6A6A6A"/>
</svg>
