<svg width="30" height="30" viewBox="0 0 30 30" fill="#EF3123" xmlns="http://www.w3.org/2000/svg">
<path fill-rule="evenodd" clip-rule="evenodd" d="M15 0C15.6904 0 16.25 0.559644 16.25 1.25V28.75C16.25 29.4404 15.6904 30 15 30C14.3096 30 13.75 29.4404 13.75 28.75V1.25C13.75 0.559644 14.3096 0 15 0Z" fill="#EF3123"/>
<path fill-rule="evenodd" clip-rule="evenodd" d="M7.89752 6.64752C8.95242 5.59263 10.3832 5 11.875 5H21.25C21.9404 5 22.5 5.55964 22.5 6.25C22.5 6.94036 21.9404 7.5 21.25 7.5H11.875C11.0462 7.5 10.2513 7.82924 9.66529 8.41529C9.07924 9.00134 8.75 9.7962 8.75 10.625C8.75 11.4538 9.07924 12.2487 9.66529 12.8347C10.2513 13.4208 11.0462 13.75 11.875 13.75H18.125C19.6168 13.75 21.0476 14.3426 22.1025 15.3975C23.1574 16.4524 23.75 17.8832 23.75 19.375C23.75 20.8668 23.1574 22.2976 22.1025 23.3525C21.0476 24.4074 19.6168 25 18.125 25H7.5C6.80964 25 6.25 24.4404 6.25 23.75C6.25 23.0596 6.80964 22.5 7.5 22.5H18.125C18.9538 22.5 19.7487 22.1708 20.3347 21.5847C20.9208 20.9987 21.25 20.2038 21.25 19.375C21.25 18.5462 20.9208 17.7513 20.3347 17.1653C19.7487 16.5792 18.9538 16.25 18.125 16.25H11.875C10.3832 16.25 8.95242 15.6574 7.89752 14.6025C6.84263 13.5476 6.25 12.1168 6.25 10.625C6.25 9.13316 6.84263 7.70242 7.89752 6.64752Z" fill="#EF3123"/>
</svg>
